<?xml version="1.0" encoding="UTF-8" standalone="no"?>
<svg width="30px" height="30px" viewBox="0 0 30 30" version="1.1" xmlns="http://www.w3.org/2000/svg" xmlns:xlink="http://www.w3.org/1999/xlink">
    <!-- Generator: Sketch 3.7.1 (28215) - http://www.bohemiancoding.com/sketch -->
    <title>productNotFound_icon</title>
    <desc>Created with Sketch.</desc>
    <defs></defs>
    <g id="Page-1" stroke="none" stroke-width="1" fill="none" fill-rule="evenodd">
        <g id="productNotFound_icon" transform="translate(-35.000000, -35.000000)" fill="#000000">
            <path d="M57.5916258,65 L63.1118975,65 C64.1547214,65 65,64.1547214 65,63.1132414 L65,36.8881025 C65,35.8452786 64.1547214,35 63.1118975,35 L36.8867586,35 C35.8439348,35 35,35.8452786 35,36.8881025 L35,63.1132414 C35,64.1547214 35.8439348,65 36.8867586,65 L47.2727273,64.9999996 L57.5916258,65 Z M38.6576289,62.3310013 C38.1432749,62.3310013 37.7272727,61.9108407 37.7272727,61.3943376 L37.7272727,44.1767559 C37.7272727,43.6602528 38.1432749,43.2400922 38.6576289,43.2400922 L61.3423711,43.2400922 C61.8567251,43.2400922 62.2727273,43.6602528 62.2727273,44.1767559 L62.2727273,61.3943376 C62.2727273,61.9108407 61.8567251,62.3310013 61.3423711,62.3310013 L38.6576289,62.3310013 Z M50,40.4545455 C49.2457143,40.4545455 48.6363636,39.8451948 48.6363636,39.0909091 C48.6363636,38.3381818 49.2457143,37.7272727 50,37.7272727 C50.7527273,37.7272727 51.3636364,38.3381818 51.3636364,39.0909091 C51.3636364,39.8451948 50.7527273,40.4545455 50,40.4545455 L50,40.4545455 Z M60.9090909,40.4545455 C60.1548052,40.4545455 59.5454545,39.8451948 59.5454545,39.0909091 C59.5454545,38.3381818 60.1548052,37.7272727 60.9090909,37.7272727 C61.6618182,37.7272727 62.2727273,38.3381818 62.2727273,39.0909091 C62.2727273,39.8451948 61.6618182,40.4545455 60.9090909,40.4545455 L60.9090909,40.4545455 Z M55.4545455,40.4545455 C54.7002597,40.4545455 54.0909091,39.8451948 54.0909091,39.0909091 C54.0909091,38.3381818 54.7002597,37.7272727 55.4545455,37.7272727 C56.2072727,37.7272727 56.8181818,38.3381818 56.8181818,39.0909091 C56.8181818,39.8451948 56.2072727,40.4545455 55.4545455,40.4545455 Z M52.0972424,52.8382836 C52.034868,52.7774663 52.034868,52.6776637 52.0972424,52.615287 L55.0475524,49.6648717 C55.5902098,49.1221948 55.5902098,48.2426841 55.0475524,47.7000073 L55.0288401,47.6797349 C54.4861826,47.1370581 53.605144,47.1370581 53.0624865,47.6797349 L50.1121766,50.6301503 C50.0498022,50.6925269 49.9500031,50.6925269 49.8891881,50.6301503 L46.9373187,47.6797349 C46.3962207,47.1370581 45.515182,47.1370581 44.9725246,47.6797349 L44.9538123,47.6984479 C44.4095955,48.2411247 44.4095955,49.1221948 44.9522529,49.6648717 L47.9041222,52.615287 C47.9649373,52.6776637 47.9649373,52.7774663 47.9041222,52.8382836 L44.9522529,55.7902584 C44.4111548,56.3313758 44.4095955,57.2108865 44.9522529,57.7551227 L44.9725246,57.7738357 C45.515182,58.3165125 46.3946613,58.318072 46.9373187,57.7753951 L49.8891881,54.8234203 C49.9500031,54.7626031 50.0498022,54.7626031 50.1121766,54.8234203 L53.0624865,57.7753951 C53.605144,58.3165125 54.4846233,58.318072 55.0272807,57.7753951 L55.0475524,57.7551227 C55.5902098,57.2124459 55.5902098,56.3329352 55.0475524,55.7902584 L52.0972424,52.8382836 Z"></path>
        </g>
    </g>
</svg>