<?xml version="1.0" encoding="UTF-8" standalone="no"?>
<svg width="67px" height="41px" viewBox="0 0 67 41" version="1.1" xmlns="http://www.w3.org/2000/svg" xmlns:xlink="http://www.w3.org/1999/xlink" xmlns:sketch="http://www.bohemiancoding.com/sketch/ns">
    <!-- Generator: Sketch 3.3.3 (12072) - http://www.bohemiancoding.com/sketch -->
    <title>slider_icon</title>
    <desc>Created with Sketch.</desc>
    <defs></defs>
    <g id="Page-1" stroke="none" stroke-width="1" fill="none" fill-rule="evenodd" sketch:type="MSPage">
        <g id="slider_icon" sketch:type="MSArtboardGroup" transform="translate(-13.000000, -30.000000)" fill="#000000">
            <g sketch:type="MSLayerGroup" transform="translate(13.000000, 30.000000)">
                <path d="M22.8355888,27.4285714 L3.31270005,27.4285714 C1.66503632,27.4285714 0.317968747,28.7743405 0.317968747,30.4344308 L0.317968747,33.9227121 C0.317968747,35.5876024 1.65875562,36.9285714 3.31270005,36.9285714 L23.3435471,36.9285714 C22.6172146,35.2661736 22.2142857,33.4301414 22.2142857,31.5 C22.2142857,30.0815065 22.4319088,28.7138417 22.8355888,27.4285714 Z M48.7358398,27.4285714 L64.0052687,27.4285714 C65.6592131,27.4285714 67,28.7695404 67,30.4344308 L67,33.9227121 C67,35.5828023 65.6529324,36.9285714 64.0052687,36.9285714 L48.2278814,36.9285714 C48.9542139,35.2661736 49.3571429,33.4301414 49.3571429,31.5 C49.3571429,30.0815065 49.1395198,28.7138417 48.7358398,27.4285714 Z" id="Rectangle-1" sketch:type="MSShapeGroup"></path>
                <path d="M35.7857143,35.0625 L35.7857143,35.0625 C37.7532287,35.0625 39.3482143,33.4675144 39.3482143,31.5 C39.3482143,29.5324856 37.7532287,27.9375 35.7857143,27.9375 C33.8181999,27.9375 32.2232143,29.5324856 32.2232143,31.5 C32.2232143,33.4675144 33.8181999,35.0625 35.7857143,35.0625 L35.7857143,35.0625 Z M35.7857143,41 L35.7857143,41 C30.5390092,41 26.2857143,36.7467051 26.2857143,31.5 C26.2857143,26.2532949 30.5390092,22 35.7857143,22 C41.0324194,22 45.2857143,26.2532949 45.2857143,31.5 C45.2857143,36.7467051 41.0324194,41 35.7857143,41 L35.7857143,41 Z" id="Shape" sketch:type="MSShapeGroup"></path>
                <g id="Rectangle-1-+-Shape" sketch:type="MSShapeGroup">
                    <path d="M21,14.4931325 L64.0008752,14.4931325 C65.6567179,14.4931325 67,13.1498973 67,11.4929328 L67,8.48333184 C67,6.8320203 65.6572461,5.48313223 64.0008752,5.48313223 L21,5.48313223 C21.4934886,6.89170668 21.7621016,8.40814228 21.7621016,9.98813234 C21.7621016,11.5681224 21.4934886,13.084558 21,14.4931325 Z" id="Rectangle-1"></path>
                    <path d="M9.10430223,6.60953787 L9.10430223,6.60953787 C7.23801225,6.60953787 5.72508529,8.12246483 5.72508529,9.98875482 C5.72508529,11.8550448 7.23801225,13.3679718 9.10430223,13.3679718 C10.9705922,13.3679718 12.4835192,11.8550448 12.4835192,9.98875482 C12.4835192,8.12246483 10.9705922,6.60953787 9.10430223,6.60953787 L9.10430223,6.60953787 Z M9.10430223,0.977509634 L9.10430223,0.977509634 C14.0810755,0.977509634 18.1155474,5.01198153 18.1155474,9.98875482 C18.1155474,14.9655281 14.0810755,19 9.10430223,19 C4.12752894,19 0.0930570474,14.9655281 0.0930570474,9.98875482 C0.0930570474,5.01198153 4.12752894,0.977509634 9.10430223,0.977509634 L9.10430223,0.977509634 Z" id="Shape"></path>
                </g>
            </g>
        </g>
    </g>
</svg>